<?xml version="1.0" standalone="no"?>
<!DOCTYPE svg PUBLIC "-//W3C//DTD SVG 20010904//EN"
 "http://www.w3.org/TR/2001/REC-SVG-20010904/DTD/svg10.dtd">
<svg version="1.0" xmlns="http://www.w3.org/2000/svg"
 width="512.000000pt" height="512.000000pt" viewBox="0 0 512.000000 512.000000"
 preserveAspectRatio="xMidYMid meet">
<metadata>
Created by potrace 1.14, written by Peter Selinger 2001-2017
</metadata>
<g transform="translate(0.000000,512.000000) scale(0.100000,-0.100000)"
fill="#000000" stroke="none">
<path d="M2002 4731 c-28 -10 -62 -27 -74 -37 -171 -146 -341 -353 -396 -481
-43 -101 -25 -202 49 -273 29 -28 35 -39 29 -56 -17 -45 -1 -139 35 -199 50
-86 179 -168 315 -199 63 -15 213 -15 290 -1 48 9 145 42 208 71 29 13 54 24
57 24 2 0 31 16 65 36 59 35 72 37 76 11 8 -44 17 -72 49 -152 52 -128 181
-381 226 -447 11 -14 19 -29 19 -32 0 -13 273 -438 298 -465 19 -19 9 -23 -24
-10 -33 12 -43 14 -134 31 -64 11 -266 16 -305 7 -53 -12 -142 -67 -199 -123
-71 -71 -106 -112 -106 -126 0 -6 -3 -10 -7 -10 -5 0 -24 -29 -43 -65 -32 -60
-50 -79 -50 -55 0 16 -114 96 -193 134 -97 47 -234 92 -312 102 -16 2 -41 6
-55 9 -31 6 -174 18 -215 18 -46 -1 -187 -12 -215 -17 -108 -22 -176 -39 -185
-47 -5 -5 -15 -9 -22 -9 -24 0 -167 -73 -230 -117 -34 -23 -66 -43 -71 -43 -5
0 -17 9 -28 21 -40 45 -161 89 -337 124 -9 2 -26 -4 -38 -14 -16 -12 -19 -23
-14 -43 8 -29 16 -34 85 -43 59 -8 132 -32 199 -63 41 -20 57 -34 68 -61 28
-67 41 -66 129 4 61 50 228 143 265 148 8 2 19 5 24 9 18 10 119 36 170 44 28
3 59 8 70 11 28 5 234 5 265 -1 14 -2 59 -10 100 -16 96 -16 258 -69 335 -110
85 -47 161 -114 175 -155 12 -36 39 -52 65 -38 8 5 31 41 50 81 91 190 224
330 342 359 42 11 227 9 273 -2 14 -3 36 -8 50 -11 14 -2 32 -7 40 -11 8 -3
20 -7 26 -8 50 -11 138 -69 200 -132 76 -78 104 -89 122 -49 11 25 15 19 -106
194 -6 9 -37 52 -67 95 -30 42 -55 80 -55 83 0 3 -11 20 -24 37 -44 58 -207
320 -285 457 -146 256 -232 453 -246 562 -11 76 -14 85 -37 95 -20 9 -34 3
-93 -38 -81 -55 -205 -120 -257 -134 -5 -2 -9 -3 -10 -5 -4 -3 -27 -9 -93 -24
-77 -18 -243 -14 -310 7 -28 9 -80 34 -115 55 -107 65 -154 170 -112 249 21
39 14 61 -27 87 -37 24 -91 86 -75 86 5 0 3 5 -3 11 -15 15 -4 86 18 123 10
17 26 45 35 61 59 106 287 353 354 383 44 20 121 22 182 6 42 -11 180 -76 278
-131 19 -11 85 -46 145 -78 61 -32 121 -67 134 -77 13 -10 28 -18 33 -18 14 0
290 -174 391 -247 201 -144 294 -233 422 -403 44 -58 87 -114 96 -125 182
-217 440 -575 548 -759 195 -332 310 -666 336 -973 5 -66 4 -77 -20 -120 -128
-231 -400 -458 -696 -580 -124 -52 -316 -110 -424 -129 -14 -2 -37 -6 -52 -9
-69 -13 -175 -26 -248 -32 -105 -8 -500 -8 -595 1 -41 3 -97 8 -125 11 -27 2
-61 6 -75 9 -25 5 -103 16 -150 21 -14 1 -65 10 -115 19 -49 9 -97 16 -106 16
-27 0 -47 -24 -53 -63 -25 -167 -113 -375 -211 -504 -19 -25 -35 -52 -35 -59
0 -16 28 -44 44 -44 28 0 94 80 142 170 16 30 32 56 37 58 4 2 7 11 7 21 0 9
4 21 9 26 12 13 65 174 81 246 l12 56 77 -14 c42 -7 94 -15 116 -18 22 -3 50
-7 63 -10 13 -2 53 -7 90 -11 36 -3 75 -8 87 -10 111 -25 659 -23 819 2 23 3
52 8 66 10 14 1 40 5 58 8 17 4 44 8 60 10 15 3 63 14 107 26 44 12 85 23 90
24 138 36 349 124 479 202 127 75 307 225 396 330 42 49 96 126 129 185 28 51
31 62 27 125 -6 90 -14 152 -33 244 -8 41 -16 83 -18 92 -12 59 -54 189 -92
288 -132 336 -311 622 -693 1105 -39 50 -112 144 -162 210 -134 176 -297 327
-498 460 -25 16 -47 33 -50 36 -8 10 -348 212 -430 256 -41 22 -147 79 -235
126 -232 124 -336 149 -453 108z"/>
<path d="M3697 1752 c-10 -2 -33 -34 -54 -75 -56 -112 -109 -176 -195 -235
-49 -33 -138 -76 -138 -65 0 3 -6 1 -12 -5 -18 -14 -108 -26 -198 -26 -70 0
-120 5 -214 20 -37 6 -167 46 -251 77 -36 14 -42 14 -57 0 -23 -21 -23 -46 0
-66 25 -23 225 -92 295 -102 15 -2 47 -7 70 -11 125 -20 301 -8 404 28 87 29
184 91 251 160 76 78 169 247 152 278 -11 21 -28 28 -53 22z"/>
</g>
</svg>
