<?xml version="1.0" standalone="no"?>
<!DOCTYPE svg PUBLIC "-//W3C//DTD SVG 20010904//EN"
 "http://www.w3.org/TR/2001/REC-SVG-20010904/DTD/svg10.dtd">
<svg version="1.0" xmlns="http://www.w3.org/2000/svg"
 width="512.000000pt" height="512.000000pt" viewBox="0 0 512.000000 512.000000"
 preserveAspectRatio="xMidYMid meet">
<metadata>
Created by potrace 1.14, written by Peter Selinger 2001-2017
</metadata>
<g transform="translate(0.000000,512.000000) scale(0.100000,-0.100000)"
fill="#000000" stroke="none">
<path d="M2552 4882 c-37 -6 -53 -42 -53 -119 1 -37 1 -76 0 -85 0 -10 0 -65
0 -123 0 -58 0 -111 -1 -117 0 -7 1 -17 2 -23 1 -5 2 -39 1 -75 -1 -65 -1 -66
-30 -68 -65 -5 -181 -82 -246 -162 -21 -26 -64 -118 -71 -153 -2 -11 -6 -22
-9 -25 -3 -3 -245 -6 -538 -6 -565 -1 -572 -2 -579 -48 -5 -29 21 -78 42 -79
8 -1 253 -2 545 -3 l530 -1 12 -35 c6 -19 17 -48 24 -65 7 -16 12 -33 11 -37
-1 -5 3 -8 8 -8 6 0 10 -5 10 -11 0 -6 6 -17 14 -25 8 -7 23 -24 33 -37 44
-54 172 -127 224 -127 15 0 18 -11 21 -96 2 -53 0 -101 -4 -107 -4 -6 -3 -18
2 -27 14 -27 -4 -40 -56 -43 l-49 -2 -1 -1113 -1 -1112 181 2 181 3 1 1112 1
1112 -36 -1 c-20 0 -48 0 -62 1 l-26 1 1 132 1 131 30 9 c156 47 257 144 305
292 l17 51 541 0 c516 0 541 1 561 19 27 24 27 70 1 94 -19 17 -48 18 -561 18
-297 -1 -543 2 -546 7 -2 4 -7 19 -9 34 -23 127 -160 264 -300 302 l-41 11 0
280 c-1 289 -2 300 -42 319 -9 4 -26 5 -39 3z m-51 -825 c1 -48 -1 -90 -5 -94
-3 -3 -1 -12 5 -20 13 -15 21 -14 -124 -16 -107 -2 -108 -2 -102 20 11 47 24
70 64 115 41 47 139 104 152 91 5 -5 9 -48 10 -96z m240 56 c64 -51 127 -147
116 -176 -3 -8 -36 -12 -113 -12 l-109 1 -2 104 c-1 58 0 110 2 117 5 15 71
-6 106 -34z m-240 -344 c3 -15 3 -33 -1 -40 -5 -7 -5 -20 -2 -28 4 -9 5 -44 2
-78 l-5 -63 -55 26 c-64 30 -125 91 -151 152 -11 24 -19 47 -19 51 0 3 50 6
112 6 l112 0 7 -26z m359 13 c0 -28 -51 -110 -89 -145 -39 -35 -99 -67 -126
-67 -10 0 -13 27 -13 108 0 59 1 109 3 112 2 3 53 5 114 5 84 0 111 -3 111
-13z m-268 -635 c11 -11 13 -128 13 -617 0 -597 0 -603 -21 -616 -17 -12 -23
-12 -38 -1 -18 13 -18 46 -18 615 0 618 1 632 38 632 7 0 19 -6 26 -13z"/>
<path d="M1110 3621 c0 -5 -17 -47 -39 -93 -71 -153 -128 -279 -162 -355 -7
-18 -17 -33 -20 -33 -3 0 -6 -6 -6 -12 0 -7 -28 -71 -61 -142 -34 -71 -62
-135 -62 -142 0 -8 -3 -14 -7 -14 -5 0 -17 -21 -27 -48 -11 -26 -38 -87 -61
-137 -57 -121 -97 -209 -128 -275 -48 -106 -89 -196 -124 -270 -34 -71 -69
-151 -75 -168 -1 -4 30 -8 70 -10 l73 -3 50 108 c28 59 62 133 76 163 14 30
52 111 84 179 33 68 59 125 59 126 0 2 34 74 75 160 41 87 75 159 75 161 0 2
22 49 49 106 80 167 142 301 158 338 l15 35 22 -45 c12 -25 40 -85 63 -135 99
-215 118 -256 166 -355 27 -58 75 -161 107 -230 32 -69 77 -165 100 -215 23
-49 50 -109 61 -132 10 -23 39 -84 64 -135 25 -51 45 -98 45 -105 0 -15 24
-21 87 -21 28 0 56 -3 62 -7 24 -14 11 21 -70 192 -27 58 -49 107 -49 109 0 2
-22 50 -49 106 -54 115 -86 184 -126 273 -15 33 -43 93 -61 133 -19 39 -46 98
-61 130 -14 31 -65 143 -113 247 -48 105 -102 222 -120 260 -18 39 -47 102
-66 141 -18 39 -38 83 -44 98 -9 25 -30 36 -30 17z"/>
<path d="M3985 3588 c-10 -24 -38 -86 -63 -138 -44 -95 -65 -141 -129 -280
-19 -41 -43 -93 -53 -115 -10 -22 -24 -55 -32 -72 -7 -18 -16 -33 -20 -33 -5
0 -8 -6 -8 -14 0 -8 -23 -63 -51 -122 -28 -60 -68 -147 -89 -194 -21 -47 -57
-125 -80 -175 -23 -49 -55 -119 -72 -155 -16 -36 -40 -86 -54 -112 -13 -27
-25 -51 -26 -55 -1 -5 -18 -44 -38 -88 -57 -124 -60 -113 25 -114 l73 0 17 36
c18 38 92 193 148 313 17 36 31 67 32 70 1 3 15 34 32 70 17 36 58 124 91 195
57 125 116 251 187 400 18 39 56 119 85 179 57 123 50 122 97 11 12 -27 44
-97 71 -155 27 -58 64 -136 82 -175 18 -38 48 -103 67 -143 32 -70 36 -105 9
-83 -7 6 -16 8 -20 4 -3 -4 -32 -6 -65 -5 -57 1 -58 0 -57 -26 1 -16 6 -26 14
-25 6 2 12 -1 12 -6 0 -5 10 -7 22 -3 15 3 -1 -17 -48 -65 l-69 -70 -48 24
c-55 27 -91 35 -159 35 -48 0 -148 -30 -148 -44 0 -4 -6 -8 -14 -8 -20 0 -79
-69 -106 -125 -36 -74 -35 -180 3 -257 32 -65 75 -111 131 -140 178 -92 390 1
440 194 23 91 10 170 -45 256 -13 21 -10 25 55 90 50 48 67 61 63 45 -5 -24 1
-32 33 -38 28 -5 33 8 32 86 0 38 1 69 4 69 3 0 62 -115 64 -125 1 -4 35 -79
115 -250 21 -44 51 -109 67 -145 17 -36 43 -93 59 -126 l30 -61 74 0 c41 0 75
3 75 6 0 4 -6 15 -14 26 -7 11 -14 22 -14 25 -2 11 -36 89 -67 152 -19 36 -31
69 -28 72 4 3 0 6 -7 6 -7 0 -10 3 -7 7 4 3 3 11 -2 17 -5 6 -46 92 -91 191
-45 99 -97 212 -115 250 -36 77 -85 182 -121 262 -13 28 -24 57 -24 62 0 6 -4
11 -10 11 -5 0 -10 6 -10 13 0 8 -16 46 -35 86 -19 39 -35 73 -35 75 0 3 -20
46 -44 98 -60 126 -119 254 -141 306 -10 23 -22 42 -25 42 -3 0 -14 -19 -25
-42z m-4 -1165 c143 -64 190 -254 93 -377 -70 -88 -193 -119 -295 -74 -115 52
-175 186 -135 305 47 139 202 206 337 146z"/>
<path d="M1029 2802 c-133 -45 -210 -149 -214 -292 -1 -47 30 -150 49 -162 6
-4 8 -8 5 -8 -11 0 54 -65 88 -88 17 -12 38 -22 47 -22 9 0 16 -4 16 -10 0 -6
3 -9 8 -9 4 1 19 1 35 0 l27 -1 0 -80 0 -81 -32 2 c-78 4 -87 1 -85 -28 2 -27
4 -28 60 -27 l57 0 1 -50 c1 -28 1 -57 0 -63 -1 -8 10 -13 28 -13 30 0 30 0
33 63 l3 62 55 0 c54 0 55 0 55 30 0 29 0 29 -57 28 l-58 0 0 74 c0 70 1 74
26 83 14 6 30 8 35 4 5 -3 9 0 9 5 0 6 3 10 8 9 37 -8 142 88 174 160 29 65
30 179 1 243 -63 142 -232 219 -374 171z m200 -67 c19 -9 47 -29 61 -44 30
-29 76 -101 65 -101 -4 0 -3 -6 3 -12 16 -21 11 -119 -9 -163 -31 -70 -97
-128 -159 -142 -164 -36 -309 68 -315 227 -2 53 21 140 37 140 4 0 8 5 8 11 0
16 65 71 108 90 46 22 155 18 201 -6z"/>
<path d="M3910 1850 c-443 -3 -812 -9 -821 -13 -30 -15 -41 -54 -25 -91 8 -19
20 -37 27 -42 18 -12 1787 -13 1818 -2 51 19 67 76 32 119 -17 22 -29 24 -123
29 -56 3 -465 3 -908 0z"/>
<path d="M212 1840 c-21 -9 -42 -46 -42 -75 0 -8 11 -27 24 -42 l24 -28 902 0
c901 -1 902 -1 926 20 13 12 26 31 29 44 5 28 -18 76 -40 85 -27 10 -1797 6
-1823 -4z"/>
<path d="M364 1637 c-8 -22 44 -141 96 -220 58 -89 196 -226 228 -227 6 0 12
-4 12 -9 0 -13 161 -84 217 -96 10 -2 38 -8 62 -13 84 -20 238 -13 351 15 59
15 174 67 230 104 139 94 241 224 309 395 l20 51 -47 2 c-26 1 -62 3 -79 4
-18 2 -33 0 -33 -3 0 -3 -25 -3 -55 0 -30 3 -61 2 -69 -2 -8 -5 -17 -4 -20 1
-3 5 -21 5 -41 1 -19 -4 -37 -4 -40 0 -3 4 -21 4 -40 0 -19 -4 -37 -4 -40 0
-3 4 -21 4 -40 0 -19 -4 -37 -4 -40 0 -3 4 -21 4 -40 0 -19 -4 -37 -4 -40 0
-3 4 -21 4 -40 0 -19 -4 -37 -4 -40 0 -3 4 -21 4 -40 0 -19 -4 -37 -4 -40 0
-3 4 -20 4 -39 0 -19 -4 -37 -5 -40 -2 -5 4 -62 5 -121 1 -5 -1 -30 0 -55 0
-25 0 -52 1 -60 0 -8 0 -34 1 -57 3 -24 2 -43 0 -43 -4 0 -3 -13 -3 -29 2 -16
4 -32 6 -34 3 -5 -5 -91 -5 -144 0 -18 2 -33 1 -33 -2 0 -8 -54 -6 -68 3 -7 4
-15 1 -18 -7z"/>
<path d="M3330 1641 c0 -4 -21 -5 -46 -3 -42 4 -45 3 -36 -14 6 -11 23 -50 38
-89 16 -38 34 -76 41 -83 7 -7 13 -18 13 -23 0 -12 107 -137 143 -168 16 -14
35 -29 41 -35 50 -45 212 -125 286 -141 8 -2 15 -4 15 -5 0 -7 59 -12 160 -16
139 -4 219 10 335 60 135 57 270 165 337 268 15 24 30 45 33 48 6 6 54 103 55
110 0 3 3 10 6 15 4 6 10 25 14 44 7 33 7 34 -24 29 -18 -3 -34 -1 -36 3 -3 4
-21 3 -40 -1 -19 -4 -37 -4 -40 0 -3 4 -20 4 -39 0 -19 -4 -37 -6 -40 -3 -7 7
-176 9 -176 1 0 -4 -12 -3 -27 1 -16 4 -44 4 -63 1 -19 -3 -52 -3 -73 1 -20 3
-40 2 -43 -2 -3 -5 -10 -7 -15 -3 -14 8 -99 10 -99 2 0 -4 -13 -3 -29 2 -16 4
-32 6 -34 3 -3 -2 -30 -4 -61 -3 -58 1 -117 1 -138 -1 -7 0 -33 0 -58 0 -25 0
-52 1 -60 0 -8 0 -34 1 -57 3 -24 2 -43 0 -43 -4 0 -3 -13 -3 -29 2 -16 4 -32
6 -34 3 -5 -5 -91 -5 -144 0 -18 2 -33 1 -33 -2z"/>
<path d="M2225 868 c-50 -39 -47 -120 6 -148 15 -9 113 -12 333 -13 324 0 344
2 366 43 13 25 20 80 9 80 -4 0 -10 9 -14 19 -3 10 -18 23 -33 27 -15 4 -166
8 -336 9 -282 1 -311 -1 -331 -17z"/>
<path d="M1879 637 c-21 -16 -46 -59 -44 -74 2 -7 3 -20 4 -28 2 -29 50 -65
89 -65 20 -1 319 -1 664 -1 542 0 632 2 657 16 58 30 60 114 4 147 -25 14
-104 16 -693 16 -509 1 -669 -1 -681 -11z"/>
<path d="M1481 402 c-56 -8 -92 -77 -68 -129 24 -54 -33 -52 1152 -52 1204 0
1132 -3 1154 60 18 51 0 92 -49 111 -31 13 -2139 17 -2147 4 -3 -4 -8 -4 -12
1 -3 4 -17 7 -30 5z"/>
</g>
</svg>
